<?xml version="1.0" encoding="UTF-8" standalone="no"?>
<svg width="24" height="24" viewBox="0 0 24 24" version="1.1" xmlns="http://www.w3.org/2000/svg" xmlns:xlink="http://www.w3.org/1999/xlink">
  <g transform="matrix(1.25468,0,0,1.09075,-2.18314,-1.19828)">
    <path d="M12.37,2.123L5.812,12.999C5.672,13.231 5.84,13.527 6.111,13.527L9.205,13.527C9.436,13.527 9.623,13.714 9.623,13.945L9.623,21.969C9.623,22.18 9.901,22.258 10.01,22.078L16.816,10.929C16.901,10.789 16.8,10.611 16.637,10.611L13.106,10.611C12.913,10.611 12.758,10.455 12.758,10.263L12.758,2.231C12.758,2.02 12.479,1.942 12.37,2.123Z" style="fill:url(#_Linear1);fill-rule:nonzero;"/>
  </g>
  <defs>
    <linearGradient id="_Linear1" x1="0" y1="0" x2="1" y2="0" gradientUnits="userSpaceOnUse" gradientTransform="matrix(7.13663e-16,11.655,-11.655,7.13663e-16,11.3025,8.2875)"><stop offset="0" style="stop-color:rgb(255,165,71);stop-opacity:1"/><stop offset="1" style="stop-color:rgb(241,75,73);stop-opacity:1"/></linearGradient>
  </defs>
</svg>
